M48
;GenerationSoftware,Autodesk,EAGLE,9.6.2*%
;CreationDate,2020-12-09T01:05:57Z*%
FMAT,2
ICI,OFF
METRIC,TZ,000.000
T3C0.350
T2C0.813
T1C1.016
%
G90
M71
T1
X5080Y26670
X7620Y26670
X10160Y26670
X12700Y26670
X5080Y29210
X5080Y31750
X7620Y29210
X7620Y31750
X10160Y29210
X10160Y31750
X12700Y29210
X12700Y31750
T2
X55880Y21590
X48260Y2540
X55880Y24130
X20320Y17780
X20320Y20320
X22860Y5080
X22860Y7620
X63500Y24130
X63500Y34290
X48260Y34290
X58420Y34290
X34290Y34290
X44450Y34290
X20320Y34290
X30480Y34290
X38100Y17780
X17780Y15240
X15240Y15240
X12700Y15240
X10160Y15240
X7620Y15240
X5080Y15240
X7620Y22860
X53340Y29210
X50800Y29210
X38100Y29210
X35560Y29210
X48260Y29210
X45720Y29210
X40640Y29210
X43180Y29210
X33020Y29210
X30480Y29210
X27940Y29210
X25400Y29210
X25400Y13970
X27940Y13970
X30480Y13970
X33020Y13970
X35560Y13970
X38100Y13970
X40640Y13970
X43180Y13970
X45720Y13970
X48260Y13970
X50800Y13970
X53340Y13970
X63500Y17780
X60960Y17780
X58420Y17780
X55880Y17780
X53340Y17780
X50800Y17780
X48260Y17780
X45720Y17780
X43180Y17780
X40640Y17780
X5080Y22860
X35560Y17780
X35560Y2540
X38100Y2540
X40640Y2540
X43180Y2540
X45720Y2540
X10160Y22860
X50800Y2540
X53340Y2540
X55880Y2540
X58420Y2540
X60960Y2540
X63500Y2540
X20320Y10160
X17780Y10160
X5080Y10160
X2540Y10160
X15240Y10160
X12700Y10160
X7620Y10160
X10160Y10160
X2540Y2540
X5080Y2540
X7620Y2540
X10160Y2540
X12700Y2540
X15240Y2540
X17780Y2540
X20320Y2540
X17780Y22860
X15240Y22860
X2540Y22860
X2540Y15240
X12700Y22860
T3
X61912Y22860
X38418Y21273
X26670Y32702
X30480Y24130
X44450Y25717
X32385Y32385
X8890Y24130
X5398Y7302
X16510Y32702
X40323Y20638
X34290Y20638
X45720Y21907
X33338Y20955
X47942Y23495
X32385Y22542
X50482Y21907
X31432Y20320
X30162Y9208
X56832Y31115
X58102Y25082
X22225Y31432
X21273Y4128
X36830Y8573
X28892Y16192
X23812Y16510
X47307Y7937
X35560Y11112
X40323Y10160
X49212Y5080
X46355Y10160
X45402Y6032
X43498Y32067
X59690Y30162
X39370Y6985
X60642Y27305
M30