G04 EAGLE Gerber RS-274X export*
G75*
%MOMM*%
%FSLAX34Y34*%
%LPD*%
%INTop Copper*%
%IPPOS*%
%AMOC8*
5,1,8,0,0,1.08239X$1,22.5*%
G01*
%ADD10C,1.320800*%
%ADD11P,1.649562X8X202.500000*%
%ADD12C,1.524000*%
%ADD13P,1.429621X8X202.500000*%
%ADD14P,1.429621X8X292.500000*%
%ADD15C,0.152400*%
%ADD16C,0.756400*%


D10*
X533400Y298704D02*
X533400Y285496D01*
X508000Y285496D02*
X508000Y298704D01*
X381000Y298704D02*
X381000Y285496D01*
X355600Y285496D02*
X355600Y298704D01*
X482600Y298704D02*
X482600Y285496D01*
X457200Y285496D02*
X457200Y298704D01*
X406400Y298704D02*
X406400Y285496D01*
X431800Y285496D02*
X431800Y298704D01*
X330200Y298704D02*
X330200Y285496D01*
X304800Y285496D02*
X304800Y298704D01*
X279400Y298704D02*
X279400Y285496D01*
X254000Y285496D02*
X254000Y298704D01*
X254000Y146304D02*
X254000Y133096D01*
X279400Y133096D02*
X279400Y146304D01*
X304800Y146304D02*
X304800Y133096D01*
X330200Y133096D02*
X330200Y146304D01*
X355600Y146304D02*
X355600Y133096D01*
X381000Y133096D02*
X381000Y146304D01*
X406400Y146304D02*
X406400Y133096D01*
X431800Y133096D02*
X431800Y146304D01*
X457200Y146304D02*
X457200Y133096D01*
X482600Y133096D02*
X482600Y146304D01*
X508000Y146304D02*
X508000Y133096D01*
X533400Y133096D02*
X533400Y146304D01*
X635000Y209296D02*
X635000Y222504D01*
X609600Y222504D02*
X609600Y209296D01*
X584200Y209296D02*
X584200Y222504D01*
X558800Y222504D02*
X558800Y209296D01*
X533400Y209296D02*
X533400Y222504D01*
X508000Y222504D02*
X508000Y209296D01*
X482600Y209296D02*
X482600Y222504D01*
X457200Y222504D02*
X457200Y209296D01*
X431800Y209296D02*
X431800Y222504D01*
X406400Y222504D02*
X406400Y209296D01*
X381000Y209296D02*
X381000Y222504D01*
X355600Y222504D02*
X355600Y209296D01*
X355600Y70104D02*
X355600Y56896D01*
X381000Y56896D02*
X381000Y70104D01*
X406400Y70104D02*
X406400Y56896D01*
X431800Y56896D02*
X431800Y70104D01*
X457200Y70104D02*
X457200Y56896D01*
X482600Y56896D02*
X482600Y70104D01*
X508000Y70104D02*
X508000Y56896D01*
X533400Y56896D02*
X533400Y70104D01*
X558800Y70104D02*
X558800Y56896D01*
X584200Y56896D02*
X584200Y70104D01*
X609600Y70104D02*
X609600Y56896D01*
X635000Y56896D02*
X635000Y70104D01*
X203200Y94996D02*
X203200Y108204D01*
X177800Y108204D02*
X177800Y94996D01*
X50800Y94996D02*
X50800Y108204D01*
X25400Y108204D02*
X25400Y94996D01*
X152400Y94996D02*
X152400Y108204D01*
X127000Y108204D02*
X127000Y94996D01*
X76200Y94996D02*
X76200Y108204D01*
X101600Y108204D02*
X101600Y94996D01*
X25400Y32004D02*
X25400Y18796D01*
X50800Y18796D02*
X50800Y32004D01*
X76200Y32004D02*
X76200Y18796D01*
X101600Y18796D02*
X101600Y32004D01*
X127000Y32004D02*
X127000Y18796D01*
X152400Y18796D02*
X152400Y32004D01*
X177800Y32004D02*
X177800Y18796D01*
X203200Y18796D02*
X203200Y32004D01*
X177800Y221996D02*
X177800Y235204D01*
X152400Y235204D02*
X152400Y221996D01*
X25400Y221996D02*
X25400Y235204D01*
X25400Y159004D02*
X25400Y145796D01*
X127000Y221996D02*
X127000Y235204D01*
X101600Y235204D02*
X101600Y221996D01*
X50800Y221996D02*
X50800Y235204D01*
X76200Y235204D02*
X76200Y221996D01*
X50800Y159004D02*
X50800Y145796D01*
X76200Y145796D02*
X76200Y159004D01*
X101600Y159004D02*
X101600Y145796D01*
X127000Y145796D02*
X127000Y159004D01*
X152400Y159004D02*
X152400Y145796D01*
X177800Y145796D02*
X177800Y159004D01*
D11*
X127000Y317500D03*
X127000Y292100D03*
X101600Y317500D03*
X101600Y292100D03*
X76200Y317500D03*
X76200Y292100D03*
X50800Y317500D03*
X50800Y292100D03*
D12*
X127000Y274320D02*
X127000Y259080D01*
X101600Y259080D02*
X101600Y274320D01*
X76200Y274320D02*
X76200Y259080D01*
X50800Y259080D02*
X50800Y274320D01*
D13*
X304800Y342900D03*
X203200Y342900D03*
X444500Y342900D03*
X342900Y342900D03*
X584200Y342900D03*
X482600Y342900D03*
X368300Y25400D03*
X266700Y25400D03*
D14*
X228600Y76200D03*
X228600Y50800D03*
X203200Y203200D03*
X203200Y177800D03*
X558800Y292100D03*
X558800Y266700D03*
D15*
X606425Y266700D02*
X612775Y266700D01*
X606425Y266700D02*
X558800Y266700D01*
X612775Y266700D02*
X635000Y244475D01*
X635000Y215900D01*
X152400Y101600D02*
X133350Y120650D01*
X44450Y120650D01*
X25400Y101600D01*
X196850Y184150D02*
X203200Y177800D01*
X196850Y184150D02*
X69850Y184150D01*
X25400Y228600D01*
X222250Y57150D02*
X228600Y50800D01*
X222250Y57150D02*
X104775Y57150D01*
X79375Y82550D01*
X44450Y82550D01*
X25400Y101600D01*
X606425Y266700D02*
X606425Y317500D01*
X403225Y317500D01*
X400050Y314325D01*
X317500Y314325D01*
X314325Y317500D01*
X279400Y317500D01*
X254000Y292100D01*
X444500Y342900D02*
X457200Y330200D01*
X571500Y330200D01*
X584200Y342900D01*
X215900Y215900D02*
X203200Y203200D01*
X215900Y215900D02*
X355600Y215900D01*
X203200Y25400D02*
X215900Y12700D01*
X355600Y12700D01*
X368300Y25400D01*
X371475Y238125D02*
X358775Y250825D01*
X371475Y238125D02*
X463550Y238125D01*
X466725Y241300D01*
X584200Y241300D01*
X609600Y215900D01*
D16*
X358775Y250825D03*
D15*
X304800Y266700D02*
X304800Y292100D01*
X304800Y266700D02*
X542925Y266700D01*
X555625Y254000D01*
X574675Y254000D01*
X577850Y257175D01*
D16*
X577850Y257175D03*
D15*
X298450Y311150D02*
X279400Y292100D01*
X298450Y311150D02*
X311150Y311150D01*
X317500Y304800D01*
X317500Y273050D01*
X549275Y273050D01*
X555625Y279400D01*
X561975Y279400D01*
D16*
X561975Y279400D03*
D15*
X304800Y190500D02*
X254000Y139700D01*
X304800Y190500D02*
X415925Y190500D01*
X422275Y196850D01*
X463550Y196850D01*
X469900Y203200D01*
X469900Y234950D01*
X514350Y234950D01*
X533400Y215900D01*
X323850Y184150D02*
X279400Y139700D01*
X323850Y184150D02*
X419100Y184150D01*
X425450Y190500D01*
X476250Y190500D01*
X482600Y196850D01*
X488950Y196850D01*
X508000Y215900D01*
X342900Y177800D02*
X304800Y139700D01*
X342900Y177800D02*
X422275Y177800D01*
X428625Y184150D01*
X482600Y184150D01*
D16*
X482600Y184150D03*
D15*
X361950Y171450D02*
X330200Y139700D01*
X361950Y171450D02*
X425450Y171450D01*
X428625Y174625D01*
X457200Y174625D01*
D16*
X457200Y174625D03*
D15*
X381000Y165100D02*
X355600Y139700D01*
X381000Y165100D02*
X431800Y165100D01*
D16*
X431800Y165100D03*
D15*
X609600Y323850D02*
X622300Y311150D01*
X609600Y323850D02*
X396875Y323850D01*
D16*
X622300Y311150D03*
X396875Y323850D03*
D15*
X561975Y311150D02*
X596900Y276225D01*
X561975Y311150D02*
X425450Y311150D01*
X406400Y292100D01*
D16*
X596900Y276225D03*
D15*
X533400Y63500D02*
X552450Y44450D01*
X615950Y44450D01*
X622300Y50800D01*
X622300Y247650D01*
X460375Y247650D01*
D16*
X460375Y247650D03*
D15*
X508000Y139700D02*
X431800Y63500D01*
X406400Y63500D02*
X482600Y139700D01*
X209550Y95250D02*
X203200Y101600D01*
X209550Y95250D02*
X349250Y95250D01*
X355600Y88900D02*
X381000Y63500D01*
X355600Y88900D02*
X349250Y95250D01*
X355600Y88900D02*
X377825Y111125D01*
D16*
X377825Y111125D03*
D15*
X196850Y82550D02*
X177800Y101600D01*
X196850Y82550D02*
X219075Y82550D01*
X225425Y88900D01*
X330200Y88900D01*
X355600Y63500D01*
X438150Y120650D02*
X457200Y139700D01*
X438150Y120650D02*
X371475Y120650D01*
X365125Y114300D01*
X215900Y114300D01*
X209550Y120650D01*
X196850Y120650D01*
X177800Y101600D01*
X114300Y63500D02*
X76200Y101600D01*
X114300Y63500D02*
X330200Y63500D01*
X349250Y44450D01*
X415925Y44450D01*
D16*
X415925Y44450D03*
D15*
X127000Y101600D02*
X101600Y101600D01*
X361950Y196850D02*
X381000Y215900D01*
X361950Y196850D02*
X257175Y196850D01*
X193675Y133350D01*
X155575Y133350D01*
D16*
X155575Y133350D03*
D15*
X381000Y139700D02*
X400050Y158750D01*
X412750Y158750D01*
X431800Y139700D01*
X50800Y127000D02*
X25400Y152400D01*
X50800Y127000D02*
X149225Y127000D01*
X152400Y123825D01*
X190500Y123825D01*
X193675Y127000D01*
X241300Y127000D01*
X247650Y120650D01*
X361950Y120650D01*
X381000Y139700D01*
X152400Y152400D02*
X127000Y152400D01*
X76200Y152400D02*
X50800Y152400D01*
X107950Y171450D02*
X127000Y152400D01*
X107950Y171450D02*
X95250Y171450D01*
X76200Y152400D01*
X222250Y257175D02*
X161925Y317500D01*
X127000Y317500D01*
D16*
X222250Y257175D03*
D15*
X165100Y327025D02*
X161925Y330200D01*
X114300Y330200D01*
X101600Y317500D01*
D16*
X165100Y327025D03*
D15*
X79375Y73025D02*
X127000Y25400D01*
X79375Y73025D02*
X53975Y73025D01*
D16*
X53975Y73025D03*
D15*
X158750Y209550D02*
X177800Y228600D01*
X158750Y209550D02*
X146050Y209550D01*
X139700Y215900D01*
X139700Y292100D01*
X127000Y292100D01*
X152400Y304800D02*
X152400Y228600D01*
X152400Y304800D02*
X114300Y304800D01*
X101600Y292100D01*
X330200Y330200D02*
X342900Y342900D01*
X330200Y330200D02*
X180975Y330200D01*
X168275Y342900D01*
X107950Y342900D01*
X88900Y323850D01*
X88900Y273050D01*
X95250Y273050D01*
X101600Y266700D01*
X390525Y260350D02*
X393700Y257175D01*
X390525Y260350D02*
X238125Y260350D01*
X180975Y203200D01*
X101600Y203200D01*
X88900Y215900D01*
X88900Y266700D01*
X76200Y266700D01*
D16*
X393700Y257175D03*
D15*
X241300Y193675D02*
X238125Y190500D01*
X88900Y190500D01*
X63500Y215900D01*
X63500Y266700D01*
X50800Y266700D01*
D16*
X241300Y193675D03*
M02*
