M48
;GenerationSoftware,Autodesk,EAGLE,9.6.2*%
;CreationDate,2020-12-16T03:08:30Z*%
FMAT,2
ICI,OFF
METRIC,TZ,000.000
T3C0.350
T2C0.813
T1C1.016
%
G90
M71
T1
X5080Y26670
X7620Y26670
X10160Y26670
X12700Y26670
X5080Y29210
X5080Y31750
X7620Y29210
X7620Y31750
X10160Y29210
X10160Y31750
X12700Y29210
X12700Y31750
T2
X55880Y26670
X17780Y10160
X55880Y29210
X20320Y17780
X20320Y20320
X22860Y5080
X53340Y29210
X50800Y29210
X38100Y29210
X35560Y29210
X48260Y29210
X45720Y29210
X40640Y29210
X43180Y29210
X33020Y29210
X30480Y29210
X27940Y29210
X25400Y29210
X25400Y13970
X27940Y13970
X30480Y13970
X33020Y13970
X35560Y13970
X38100Y13970
X40640Y13970
X43180Y13970
X45720Y13970
X48260Y13970
X50800Y13970
X53340Y13970
X63500Y21590
X60960Y21590
X58420Y21590
X55880Y21590
X53340Y21590
X50800Y21590
X48260Y21590
X45720Y21590
X43180Y21590
X40640Y21590
X38100Y21590
X35560Y21590
X35560Y6350
X38100Y6350
X40640Y6350
X43180Y6350
X45720Y6350
X48260Y6350
X50800Y6350
X22860Y7620
X55880Y6350
X58420Y6350
X60960Y6350
X63500Y6350
X20320Y10160
X26670Y2540
X5080Y10160
X2540Y10160
X15240Y10160
X12700Y10160
X7620Y10160
X10160Y10160
X2540Y2540
X5080Y2540
X7620Y2540
X10160Y2540
X12700Y2540
X15240Y2540
X17780Y2540
X20320Y2540
X17780Y22860
X15240Y22860
X2540Y22860
X2540Y15240
X12700Y22860
X10160Y22860
X5080Y22860
X7620Y22860
X5080Y15240
X7620Y15240
X10160Y15240
X12700Y15240
X15240Y15240
X17780Y15240
X36830Y2540
X48260Y34290
X58420Y34290
X34290Y34290
X44450Y34290
X20320Y34290
X30480Y34290
X53340Y6350
T3
X48260Y18415
X56197Y27940
X57785Y25717
X45720Y17463
X43180Y16510
X62230Y31115
X39688Y32385
X59690Y27622
X46037Y24765
X37783Y11112
X41593Y4445
X22225Y25717
X15557Y13335
X24130Y19368
X39370Y25717
X5398Y7302
X16510Y32702
X35878Y25082
M30