G04 EAGLE Gerber RS-274X export*
G75*
%MOMM*%
%FSLAX34Y34*%
%LPD*%
%INSoldermask Bottom*%
%IPPOS*%
%AMOC8*
5,1,8,0,0,1.08239X$1,22.5*%
G01*
%ADD10C,1.524000*%
%ADD11P,1.869504X8X202.500000*%
%ADD12C,1.727200*%
%ADD13P,1.649562X8X202.500000*%
%ADD14P,1.649562X8X292.500000*%
%ADD15C,0.959600*%


D10*
X533400Y298704D02*
X533400Y285496D01*
X508000Y285496D02*
X508000Y298704D01*
X381000Y298704D02*
X381000Y285496D01*
X355600Y285496D02*
X355600Y298704D01*
X482600Y298704D02*
X482600Y285496D01*
X457200Y285496D02*
X457200Y298704D01*
X406400Y298704D02*
X406400Y285496D01*
X431800Y285496D02*
X431800Y298704D01*
X330200Y298704D02*
X330200Y285496D01*
X304800Y285496D02*
X304800Y298704D01*
X279400Y298704D02*
X279400Y285496D01*
X254000Y285496D02*
X254000Y298704D01*
X254000Y146304D02*
X254000Y133096D01*
X279400Y133096D02*
X279400Y146304D01*
X304800Y146304D02*
X304800Y133096D01*
X330200Y133096D02*
X330200Y146304D01*
X355600Y146304D02*
X355600Y133096D01*
X381000Y133096D02*
X381000Y146304D01*
X406400Y146304D02*
X406400Y133096D01*
X431800Y133096D02*
X431800Y146304D01*
X457200Y146304D02*
X457200Y133096D01*
X482600Y133096D02*
X482600Y146304D01*
X508000Y146304D02*
X508000Y133096D01*
X533400Y133096D02*
X533400Y146304D01*
X635000Y209296D02*
X635000Y222504D01*
X609600Y222504D02*
X609600Y209296D01*
X584200Y209296D02*
X584200Y222504D01*
X558800Y222504D02*
X558800Y209296D01*
X533400Y209296D02*
X533400Y222504D01*
X508000Y222504D02*
X508000Y209296D01*
X482600Y209296D02*
X482600Y222504D01*
X457200Y222504D02*
X457200Y209296D01*
X431800Y209296D02*
X431800Y222504D01*
X406400Y222504D02*
X406400Y209296D01*
X381000Y209296D02*
X381000Y222504D01*
X355600Y222504D02*
X355600Y209296D01*
X355600Y70104D02*
X355600Y56896D01*
X381000Y56896D02*
X381000Y70104D01*
X406400Y70104D02*
X406400Y56896D01*
X431800Y56896D02*
X431800Y70104D01*
X457200Y70104D02*
X457200Y56896D01*
X482600Y56896D02*
X482600Y70104D01*
X508000Y70104D02*
X508000Y56896D01*
X533400Y56896D02*
X533400Y70104D01*
X558800Y70104D02*
X558800Y56896D01*
X584200Y56896D02*
X584200Y70104D01*
X609600Y70104D02*
X609600Y56896D01*
X635000Y56896D02*
X635000Y70104D01*
X203200Y94996D02*
X203200Y108204D01*
X177800Y108204D02*
X177800Y94996D01*
X50800Y94996D02*
X50800Y108204D01*
X25400Y108204D02*
X25400Y94996D01*
X152400Y94996D02*
X152400Y108204D01*
X127000Y108204D02*
X127000Y94996D01*
X76200Y94996D02*
X76200Y108204D01*
X101600Y108204D02*
X101600Y94996D01*
X25400Y32004D02*
X25400Y18796D01*
X50800Y18796D02*
X50800Y32004D01*
X76200Y32004D02*
X76200Y18796D01*
X101600Y18796D02*
X101600Y32004D01*
X127000Y32004D02*
X127000Y18796D01*
X152400Y18796D02*
X152400Y32004D01*
X177800Y32004D02*
X177800Y18796D01*
X203200Y18796D02*
X203200Y32004D01*
X177800Y221996D02*
X177800Y235204D01*
X152400Y235204D02*
X152400Y221996D01*
X25400Y221996D02*
X25400Y235204D01*
X25400Y159004D02*
X25400Y145796D01*
X127000Y221996D02*
X127000Y235204D01*
X101600Y235204D02*
X101600Y221996D01*
X50800Y221996D02*
X50800Y235204D01*
X76200Y235204D02*
X76200Y221996D01*
X50800Y159004D02*
X50800Y145796D01*
X76200Y145796D02*
X76200Y159004D01*
X101600Y159004D02*
X101600Y145796D01*
X127000Y145796D02*
X127000Y159004D01*
X152400Y159004D02*
X152400Y145796D01*
X177800Y145796D02*
X177800Y159004D01*
D11*
X127000Y317500D03*
X127000Y292100D03*
X101600Y317500D03*
X101600Y292100D03*
X76200Y317500D03*
X76200Y292100D03*
X50800Y317500D03*
X50800Y292100D03*
D12*
X127000Y274320D02*
X127000Y259080D01*
X101600Y259080D02*
X101600Y274320D01*
X76200Y274320D02*
X76200Y259080D01*
X50800Y259080D02*
X50800Y274320D01*
D13*
X304800Y342900D03*
X203200Y342900D03*
X444500Y342900D03*
X342900Y342900D03*
X584200Y342900D03*
X482600Y342900D03*
X368300Y25400D03*
X266700Y25400D03*
D14*
X228600Y76200D03*
X228600Y50800D03*
X203200Y203200D03*
X203200Y177800D03*
X558800Y292100D03*
X558800Y266700D03*
D15*
X358775Y250825D03*
X577850Y257175D03*
X561975Y279400D03*
X482600Y184150D03*
X457200Y174625D03*
X431800Y165100D03*
X622300Y311150D03*
X396875Y323850D03*
X596900Y276225D03*
X460375Y247650D03*
X377825Y111125D03*
X415925Y44450D03*
X155575Y133350D03*
X222250Y257175D03*
X165100Y327025D03*
X53975Y73025D03*
X393700Y257175D03*
X241300Y193675D03*
M02*
