G04 EAGLE Gerber RS-274X export*
G75*
%MOMM*%
%FSLAX34Y34*%
%LPD*%
%INTop Copper*%
%IPPOS*%
%AMOC8*
5,1,8,0,0,1.08239X$1,22.5*%
G01*
%ADD10C,1.320800*%
%ADD11P,1.649562X8X202.500000*%
%ADD12C,1.524000*%
%ADD13P,1.429621X8X202.500000*%
%ADD14P,1.429621X8X292.500000*%
%ADD15C,0.152400*%
%ADD16C,0.756400*%


D10*
X533400Y298704D02*
X533400Y285496D01*
X508000Y285496D02*
X508000Y298704D01*
X381000Y298704D02*
X381000Y285496D01*
X355600Y285496D02*
X355600Y298704D01*
X482600Y298704D02*
X482600Y285496D01*
X457200Y285496D02*
X457200Y298704D01*
X406400Y298704D02*
X406400Y285496D01*
X431800Y285496D02*
X431800Y298704D01*
X330200Y298704D02*
X330200Y285496D01*
X304800Y285496D02*
X304800Y298704D01*
X279400Y298704D02*
X279400Y285496D01*
X254000Y285496D02*
X254000Y298704D01*
X254000Y146304D02*
X254000Y133096D01*
X279400Y133096D02*
X279400Y146304D01*
X304800Y146304D02*
X304800Y133096D01*
X330200Y133096D02*
X330200Y146304D01*
X355600Y146304D02*
X355600Y133096D01*
X381000Y133096D02*
X381000Y146304D01*
X406400Y146304D02*
X406400Y133096D01*
X431800Y133096D02*
X431800Y146304D01*
X457200Y146304D02*
X457200Y133096D01*
X482600Y133096D02*
X482600Y146304D01*
X508000Y146304D02*
X508000Y133096D01*
X533400Y133096D02*
X533400Y146304D01*
X635000Y171196D02*
X635000Y184404D01*
X609600Y184404D02*
X609600Y171196D01*
X584200Y171196D02*
X584200Y184404D01*
X558800Y184404D02*
X558800Y171196D01*
X533400Y171196D02*
X533400Y184404D01*
X508000Y184404D02*
X508000Y171196D01*
X482600Y171196D02*
X482600Y184404D01*
X457200Y184404D02*
X457200Y171196D01*
X431800Y171196D02*
X431800Y184404D01*
X406400Y184404D02*
X406400Y171196D01*
X381000Y171196D02*
X381000Y184404D01*
X355600Y184404D02*
X355600Y171196D01*
X355600Y32004D02*
X355600Y18796D01*
X381000Y18796D02*
X381000Y32004D01*
X406400Y32004D02*
X406400Y18796D01*
X431800Y18796D02*
X431800Y32004D01*
X457200Y32004D02*
X457200Y18796D01*
X482600Y18796D02*
X482600Y32004D01*
X508000Y32004D02*
X508000Y18796D01*
X533400Y18796D02*
X533400Y32004D01*
X558800Y32004D02*
X558800Y18796D01*
X584200Y18796D02*
X584200Y32004D01*
X609600Y32004D02*
X609600Y18796D01*
X635000Y18796D02*
X635000Y32004D01*
X203200Y94996D02*
X203200Y108204D01*
X177800Y108204D02*
X177800Y94996D01*
X50800Y94996D02*
X50800Y108204D01*
X25400Y108204D02*
X25400Y94996D01*
X152400Y94996D02*
X152400Y108204D01*
X127000Y108204D02*
X127000Y94996D01*
X76200Y94996D02*
X76200Y108204D01*
X101600Y108204D02*
X101600Y94996D01*
X25400Y32004D02*
X25400Y18796D01*
X50800Y18796D02*
X50800Y32004D01*
X76200Y32004D02*
X76200Y18796D01*
X101600Y18796D02*
X101600Y32004D01*
X127000Y32004D02*
X127000Y18796D01*
X152400Y18796D02*
X152400Y32004D01*
X177800Y32004D02*
X177800Y18796D01*
X203200Y18796D02*
X203200Y32004D01*
X177800Y221996D02*
X177800Y235204D01*
X152400Y235204D02*
X152400Y221996D01*
X25400Y221996D02*
X25400Y235204D01*
X25400Y159004D02*
X25400Y145796D01*
X127000Y221996D02*
X127000Y235204D01*
X101600Y235204D02*
X101600Y221996D01*
X50800Y221996D02*
X50800Y235204D01*
X76200Y235204D02*
X76200Y221996D01*
X50800Y159004D02*
X50800Y145796D01*
X76200Y145796D02*
X76200Y159004D01*
X101600Y159004D02*
X101600Y145796D01*
X127000Y145796D02*
X127000Y159004D01*
X152400Y159004D02*
X152400Y145796D01*
X177800Y145796D02*
X177800Y159004D01*
D11*
X127000Y317500D03*
X127000Y292100D03*
X101600Y317500D03*
X101600Y292100D03*
X76200Y317500D03*
X76200Y292100D03*
X50800Y317500D03*
X50800Y292100D03*
D12*
X127000Y274320D02*
X127000Y259080D01*
X101600Y259080D02*
X101600Y274320D01*
X76200Y274320D02*
X76200Y259080D01*
X50800Y259080D02*
X50800Y274320D01*
D13*
X304800Y342900D03*
X203200Y342900D03*
X444500Y342900D03*
X342900Y342900D03*
X584200Y342900D03*
X482600Y342900D03*
D14*
X635000Y342900D03*
X635000Y241300D03*
X228600Y76200D03*
X228600Y50800D03*
X203200Y203200D03*
X203200Y177800D03*
X558800Y241300D03*
X558800Y215900D03*
D15*
X25400Y101600D02*
X12700Y114300D01*
X12700Y215900D01*
X25400Y228600D01*
X231775Y314325D02*
X254000Y292100D01*
X231775Y314325D02*
X231775Y317500D01*
X225425Y323850D01*
X212725Y323850D01*
X212725Y209550D01*
X215900Y206375D01*
X215900Y200025D01*
X203200Y187325D01*
X203200Y177800D01*
X203200Y25400D02*
X241300Y25400D01*
X241300Y63500D01*
X228600Y76200D01*
X177800Y152400D02*
X190500Y165100D01*
X190500Y190500D01*
X203200Y203200D01*
X190500Y38100D02*
X203200Y25400D01*
X190500Y38100D02*
X190500Y165100D01*
X584200Y342900D02*
X635000Y342900D01*
X546100Y152400D02*
X533400Y139700D01*
X546100Y152400D02*
X546100Y228600D01*
X558800Y241300D01*
X558800Y317500D02*
X584200Y342900D01*
X558800Y317500D02*
X558800Y241300D01*
X355600Y177800D02*
X352425Y180975D01*
X352425Y244475D01*
X317500Y279400D01*
X317500Y317500D01*
X304800Y330200D01*
X304800Y342900D01*
X606425Y273050D02*
X609600Y269875D01*
X609600Y177800D01*
D16*
X606425Y273050D03*
D15*
X584200Y247650D02*
X581025Y250825D01*
X584200Y247650D02*
X584200Y177800D01*
D16*
X581025Y250825D03*
D15*
X571500Y307975D02*
X568325Y311150D01*
X571500Y307975D02*
X571500Y190500D01*
X558800Y177800D01*
D16*
X568325Y311150D03*
D15*
X301625Y92075D02*
X254000Y139700D01*
D16*
X301625Y92075D03*
D15*
X279400Y139700D02*
X314325Y174625D01*
X314325Y203200D01*
X504825Y219075D02*
X508000Y215900D01*
X508000Y177800D01*
D16*
X314325Y203200D03*
X504825Y219075D03*
D15*
X323850Y158750D02*
X304800Y139700D01*
X323850Y158750D02*
X323850Y225425D01*
X479425Y234950D02*
X482600Y231775D01*
X482600Y177800D01*
D16*
X323850Y225425D03*
X479425Y234950D03*
D15*
X333375Y142875D02*
X330200Y139700D01*
X333375Y142875D02*
X333375Y209550D01*
X457200Y219075D02*
X457200Y177800D01*
D16*
X333375Y209550D03*
X457200Y219075D03*
D15*
X355600Y139700D02*
X342900Y152400D01*
X342900Y206375D01*
X403225Y206375D02*
X431800Y177800D01*
D16*
X342900Y206375D03*
X403225Y206375D03*
D15*
X384175Y263525D02*
X355600Y292100D01*
X384175Y263525D02*
X384175Y212725D01*
X619125Y228600D02*
X622300Y225425D01*
X622300Y38100D01*
X635000Y25400D01*
D16*
X384175Y212725D03*
X619125Y228600D03*
D15*
X393700Y279400D02*
X393700Y69850D01*
X393700Y279400D02*
X381000Y292100D01*
D16*
X393700Y69850D03*
D15*
X584200Y25400D02*
X596900Y38100D01*
X596900Y301625D01*
X434975Y320675D02*
X406400Y292100D01*
D16*
X596900Y301625D03*
X434975Y320675D03*
D15*
X444500Y69850D02*
X454025Y60325D01*
X444500Y69850D02*
X444500Y244475D01*
X431800Y257175D01*
X431800Y292100D01*
D16*
X454025Y60325D03*
D15*
X520700Y38100D02*
X533400Y25400D01*
X520700Y38100D02*
X520700Y307975D01*
X511175Y317500D01*
X466725Y317500D01*
X466725Y311150D01*
X457200Y301625D01*
X457200Y292100D01*
X501650Y31750D02*
X508000Y25400D01*
X501650Y31750D02*
X501650Y120650D01*
X495300Y127000D01*
X495300Y279400D01*
X482600Y292100D01*
X463550Y57150D02*
X431800Y25400D01*
X463550Y57150D02*
X463550Y101600D01*
D16*
X463550Y101600D03*
D15*
X488950Y53975D02*
X492125Y50800D01*
X488950Y53975D02*
X488950Y133350D01*
X482600Y139700D01*
D16*
X492125Y50800D03*
D15*
X406400Y104775D02*
X403225Y101600D01*
X406400Y104775D02*
X406400Y139700D01*
X403225Y47625D02*
X381000Y25400D01*
X403225Y47625D02*
X403225Y101600D01*
D16*
X403225Y101600D03*
D15*
X355600Y111125D02*
X355600Y25400D01*
D16*
X355600Y111125D03*
D15*
X482600Y114300D02*
X482600Y25400D01*
X482600Y114300D02*
X469900Y127000D01*
X469900Y304800D01*
X476250Y311150D01*
X508000Y311150D01*
X508000Y292100D01*
X473075Y41275D02*
X457200Y25400D01*
X473075Y41275D02*
X473075Y79375D01*
D16*
X473075Y79375D03*
D15*
X288925Y165100D02*
X238125Y165100D01*
X288925Y165100D02*
X288925Y161925D01*
D16*
X238125Y165100D03*
X288925Y161925D03*
D15*
X127000Y101600D02*
X101600Y101600D01*
X368300Y165100D02*
X381000Y177800D01*
X368300Y165100D02*
X368300Y85725D01*
D16*
X368300Y85725D03*
D15*
X152400Y152400D02*
X127000Y152400D01*
X76200Y152400D02*
X50800Y152400D01*
X50800Y228600D01*
X215900Y44450D02*
X212725Y41275D01*
X215900Y44450D02*
X215900Y190500D01*
X222250Y196850D01*
X222250Y314325D01*
D16*
X212725Y41275D03*
X222250Y314325D03*
D15*
X165100Y38100D02*
X152400Y25400D01*
X165100Y38100D02*
X165100Y327025D01*
D16*
X165100Y327025D03*
D15*
X38100Y88900D02*
X53975Y73025D01*
X38100Y88900D02*
X38100Y298450D01*
X44450Y304800D01*
X76200Y304800D01*
X76200Y317500D01*
D16*
X53975Y73025D03*
D15*
X88900Y38100D02*
X101600Y25400D01*
X88900Y38100D02*
X88900Y241300D01*
D16*
X88900Y241300D03*
D15*
X133350Y209550D02*
X152400Y228600D01*
X133350Y209550D02*
X114300Y209550D01*
X114300Y279400D01*
X101600Y292100D01*
X98425Y231775D02*
X101600Y228600D01*
X98425Y231775D02*
X98425Y244475D01*
X88900Y254000D01*
X88900Y279400D01*
X76200Y292100D01*
X63500Y241300D02*
X76200Y228600D01*
X63500Y241300D02*
X63500Y279400D01*
X50800Y292100D01*
X139700Y342900D02*
X203200Y342900D01*
X139700Y342900D02*
X139700Y279400D01*
X127000Y266700D01*
X323850Y323850D02*
X342900Y342900D01*
D16*
X323850Y323850D03*
D15*
X444500Y304800D02*
X482600Y342900D01*
X444500Y304800D02*
X444500Y257175D01*
D16*
X444500Y257175D03*
D15*
X304800Y241300D02*
X266700Y279400D01*
X266700Y327025D01*
D16*
X304800Y241300D03*
X266700Y327025D03*
M02*
