G04 EAGLE Gerber RS-274X export*
G75*
%MOMM*%
%FSLAX34Y34*%
%LPD*%
%INBottom Copper*%
%IPPOS*%
%AMOC8*
5,1,8,0,0,1.08239X$1,22.5*%
G01*
%ADD10C,1.320800*%
%ADD11P,1.649562X8X202.500000*%
%ADD12C,1.524000*%
%ADD13P,1.429621X8X202.500000*%
%ADD14P,1.429621X8X292.500000*%
%ADD15C,0.152400*%
%ADD16C,0.756400*%


D10*
X533400Y298704D02*
X533400Y285496D01*
X508000Y285496D02*
X508000Y298704D01*
X381000Y298704D02*
X381000Y285496D01*
X355600Y285496D02*
X355600Y298704D01*
X482600Y298704D02*
X482600Y285496D01*
X457200Y285496D02*
X457200Y298704D01*
X406400Y298704D02*
X406400Y285496D01*
X431800Y285496D02*
X431800Y298704D01*
X330200Y298704D02*
X330200Y285496D01*
X304800Y285496D02*
X304800Y298704D01*
X279400Y298704D02*
X279400Y285496D01*
X254000Y285496D02*
X254000Y298704D01*
X254000Y146304D02*
X254000Y133096D01*
X279400Y133096D02*
X279400Y146304D01*
X304800Y146304D02*
X304800Y133096D01*
X330200Y133096D02*
X330200Y146304D01*
X355600Y146304D02*
X355600Y133096D01*
X381000Y133096D02*
X381000Y146304D01*
X406400Y146304D02*
X406400Y133096D01*
X431800Y133096D02*
X431800Y146304D01*
X457200Y146304D02*
X457200Y133096D01*
X482600Y133096D02*
X482600Y146304D01*
X508000Y146304D02*
X508000Y133096D01*
X533400Y133096D02*
X533400Y146304D01*
X635000Y171196D02*
X635000Y184404D01*
X609600Y184404D02*
X609600Y171196D01*
X584200Y171196D02*
X584200Y184404D01*
X558800Y184404D02*
X558800Y171196D01*
X533400Y171196D02*
X533400Y184404D01*
X508000Y184404D02*
X508000Y171196D01*
X482600Y171196D02*
X482600Y184404D01*
X457200Y184404D02*
X457200Y171196D01*
X431800Y171196D02*
X431800Y184404D01*
X406400Y184404D02*
X406400Y171196D01*
X381000Y171196D02*
X381000Y184404D01*
X355600Y184404D02*
X355600Y171196D01*
X355600Y32004D02*
X355600Y18796D01*
X381000Y18796D02*
X381000Y32004D01*
X406400Y32004D02*
X406400Y18796D01*
X431800Y18796D02*
X431800Y32004D01*
X457200Y32004D02*
X457200Y18796D01*
X482600Y18796D02*
X482600Y32004D01*
X508000Y32004D02*
X508000Y18796D01*
X533400Y18796D02*
X533400Y32004D01*
X558800Y32004D02*
X558800Y18796D01*
X584200Y18796D02*
X584200Y32004D01*
X609600Y32004D02*
X609600Y18796D01*
X635000Y18796D02*
X635000Y32004D01*
X203200Y94996D02*
X203200Y108204D01*
X177800Y108204D02*
X177800Y94996D01*
X50800Y94996D02*
X50800Y108204D01*
X25400Y108204D02*
X25400Y94996D01*
X152400Y94996D02*
X152400Y108204D01*
X127000Y108204D02*
X127000Y94996D01*
X76200Y94996D02*
X76200Y108204D01*
X101600Y108204D02*
X101600Y94996D01*
X25400Y32004D02*
X25400Y18796D01*
X50800Y18796D02*
X50800Y32004D01*
X76200Y32004D02*
X76200Y18796D01*
X101600Y18796D02*
X101600Y32004D01*
X127000Y32004D02*
X127000Y18796D01*
X152400Y18796D02*
X152400Y32004D01*
X177800Y32004D02*
X177800Y18796D01*
X203200Y18796D02*
X203200Y32004D01*
X177800Y221996D02*
X177800Y235204D01*
X152400Y235204D02*
X152400Y221996D01*
X25400Y221996D02*
X25400Y235204D01*
X25400Y159004D02*
X25400Y145796D01*
X127000Y221996D02*
X127000Y235204D01*
X101600Y235204D02*
X101600Y221996D01*
X50800Y221996D02*
X50800Y235204D01*
X76200Y235204D02*
X76200Y221996D01*
X50800Y159004D02*
X50800Y145796D01*
X76200Y145796D02*
X76200Y159004D01*
X101600Y159004D02*
X101600Y145796D01*
X127000Y145796D02*
X127000Y159004D01*
X152400Y159004D02*
X152400Y145796D01*
X177800Y145796D02*
X177800Y159004D01*
D11*
X127000Y317500D03*
X127000Y292100D03*
X101600Y317500D03*
X101600Y292100D03*
X76200Y317500D03*
X76200Y292100D03*
X50800Y317500D03*
X50800Y292100D03*
D12*
X127000Y274320D02*
X127000Y259080D01*
X101600Y259080D02*
X101600Y274320D01*
X76200Y274320D02*
X76200Y259080D01*
X50800Y259080D02*
X50800Y274320D01*
D13*
X304800Y342900D03*
X203200Y342900D03*
X444500Y342900D03*
X342900Y342900D03*
X584200Y342900D03*
X482600Y342900D03*
D14*
X635000Y342900D03*
X635000Y241300D03*
X228600Y76200D03*
X228600Y50800D03*
X203200Y203200D03*
X203200Y177800D03*
X558800Y241300D03*
X558800Y215900D03*
D15*
X152400Y82550D02*
X152400Y50800D01*
X152400Y82550D02*
X152400Y101600D01*
X152400Y50800D02*
X228600Y50800D01*
X596900Y215900D02*
X635000Y177800D01*
X596900Y215900D02*
X558800Y215900D01*
X203200Y177800D02*
X177800Y203200D01*
X50800Y203200D01*
X25400Y228600D01*
X539750Y196850D02*
X558800Y215900D01*
X539750Y196850D02*
X320675Y196850D01*
X301625Y177800D01*
X203200Y177800D01*
X152400Y82550D02*
X44450Y82550D01*
X25400Y101600D01*
X349250Y171450D02*
X355600Y177800D01*
X349250Y171450D02*
X257175Y171450D01*
X238125Y152400D01*
X177800Y152400D01*
X314325Y333375D02*
X304800Y342900D01*
X314325Y333375D02*
X336550Y333375D01*
X339725Y330200D01*
X431800Y330200D01*
X444500Y342900D01*
X457200Y330200D01*
X571500Y330200D01*
X584200Y342900D01*
X349250Y273050D02*
X330200Y292100D01*
X349250Y273050D02*
X606425Y273050D01*
D16*
X606425Y273050D03*
D15*
X330200Y266700D02*
X304800Y292100D01*
X330200Y266700D02*
X565150Y266700D01*
X581025Y250825D01*
D16*
X581025Y250825D03*
D15*
X298450Y311150D02*
X279400Y292100D01*
X298450Y311150D02*
X568325Y311150D01*
D16*
X568325Y311150D03*
D15*
X304800Y95250D02*
X301625Y92075D01*
X304800Y95250D02*
X396875Y95250D01*
X400050Y92075D01*
X434975Y92075D01*
X469900Y127000D01*
X469900Y158750D01*
X514350Y158750D01*
X533400Y177800D01*
D16*
X301625Y92075D03*
D15*
X314325Y203200D02*
X339725Y228600D01*
X473075Y228600D01*
X482600Y219075D01*
X504825Y219075D01*
D16*
X314325Y203200D03*
X504825Y219075D03*
D15*
X333375Y234950D02*
X323850Y225425D01*
X333375Y234950D02*
X479425Y234950D01*
D16*
X323850Y225425D03*
X479425Y234950D03*
D15*
X346075Y222250D02*
X333375Y209550D01*
X346075Y222250D02*
X454025Y222250D01*
X457200Y219075D01*
D16*
X333375Y209550D03*
X457200Y219075D03*
D15*
X346075Y203200D02*
X342900Y206375D01*
X346075Y203200D02*
X400050Y203200D01*
X403225Y206375D01*
D16*
X342900Y206375D03*
X403225Y206375D03*
D15*
X387350Y215900D02*
X384175Y212725D01*
X387350Y215900D02*
X447675Y215900D01*
X454025Y209550D01*
X536575Y209550D01*
X555625Y228600D01*
X619125Y228600D01*
D16*
X384175Y212725D03*
X619125Y228600D03*
D15*
X565150Y69850D02*
X609600Y25400D01*
X565150Y69850D02*
X393700Y69850D01*
D16*
X393700Y69850D03*
D15*
X596900Y301625D02*
X577850Y320675D01*
X434975Y320675D01*
D16*
X596900Y301625D03*
X434975Y320675D03*
D15*
X523875Y60325D02*
X558800Y25400D01*
X523875Y60325D02*
X454025Y60325D01*
D16*
X454025Y60325D03*
D15*
X463550Y101600D02*
X482600Y120650D01*
X488950Y120650D01*
X508000Y139700D01*
D16*
X463550Y101600D03*
D15*
X431800Y50800D02*
X406400Y25400D01*
X431800Y50800D02*
X492125Y50800D01*
D16*
X492125Y50800D03*
D15*
X403225Y101600D02*
X203200Y101600D01*
D16*
X403225Y101600D03*
D15*
X196850Y120650D02*
X177800Y101600D01*
X196850Y120650D02*
X238125Y120650D01*
X244475Y114300D01*
X355600Y114300D02*
X431800Y114300D01*
X355600Y114300D02*
X244475Y114300D01*
X431800Y114300D02*
X457200Y139700D01*
X355600Y114300D02*
X355600Y111125D01*
D16*
X355600Y111125D03*
D15*
X473075Y79375D02*
X508000Y114300D01*
X596900Y114300D01*
X647700Y165100D01*
X647700Y292100D01*
X533400Y292100D01*
D16*
X473075Y79375D03*
D15*
X76200Y101600D02*
X44450Y133350D01*
X19050Y133350D01*
X12700Y139700D01*
X12700Y177800D01*
X187325Y177800D01*
X200025Y165100D01*
X238125Y165100D01*
X288925Y161925D02*
X292100Y158750D01*
X387350Y158750D01*
X406400Y177800D01*
D16*
X238125Y165100D03*
X288925Y161925D03*
D15*
X368300Y85725D02*
X346075Y63500D01*
X190500Y63500D01*
X165100Y88900D01*
X165100Y120650D01*
X146050Y120650D01*
X127000Y101600D01*
D16*
X368300Y85725D03*
D15*
X381000Y139700D02*
X400050Y158750D01*
X412750Y158750D01*
X431800Y139700D01*
X44450Y171450D02*
X25400Y152400D01*
X44450Y171450D02*
X158750Y171450D01*
X165100Y165100D01*
X165100Y127000D01*
X241300Y127000D01*
X247650Y120650D01*
X361950Y120650D01*
X381000Y139700D01*
X127000Y152400D02*
X107950Y133350D01*
X95250Y133350D01*
X76200Y152400D01*
X196850Y44450D02*
X177800Y25400D01*
X196850Y44450D02*
X209550Y44450D01*
X212725Y41275D01*
X222250Y314325D02*
X219075Y317500D01*
X127000Y317500D01*
D16*
X212725Y41275D03*
X222250Y314325D03*
D15*
X165100Y327025D02*
X161925Y330200D01*
X114300Y330200D01*
X101600Y317500D01*
D16*
X165100Y327025D03*
D15*
X79375Y73025D02*
X127000Y25400D01*
X79375Y73025D02*
X53975Y73025D01*
D16*
X53975Y73025D03*
D15*
X88900Y241300D02*
X88900Y304800D01*
X63500Y304800D01*
X50800Y317500D01*
D16*
X88900Y241300D03*
D15*
X177800Y228600D02*
X177800Y292100D01*
X127000Y292100D01*
X317500Y317500D02*
X323850Y323850D01*
X317500Y317500D02*
X238125Y317500D01*
X225425Y304800D01*
X120650Y304800D01*
X114300Y298450D01*
X114300Y266700D01*
X101600Y266700D01*
D16*
X323850Y323850D03*
D15*
X438150Y250825D02*
X444500Y257175D01*
X438150Y250825D02*
X225425Y250825D01*
X184150Y209550D01*
X69850Y209550D01*
X63500Y215900D01*
X63500Y266700D01*
X76200Y266700D01*
D16*
X444500Y257175D03*
D15*
X574675Y241300D02*
X635000Y241300D01*
X574675Y241300D02*
X561975Y254000D01*
X454025Y254000D01*
X441325Y241300D01*
X304800Y241300D01*
X266700Y327025D02*
X263525Y330200D01*
X174625Y330200D01*
X168275Y336550D01*
X50800Y336550D01*
X38100Y323850D01*
X38100Y266700D01*
X50800Y266700D01*
D16*
X304800Y241300D03*
X266700Y327025D03*
M02*
